<svg width="67" height="67" viewBox="0 0 67 67" fill="none" xmlns="http://www.w3.org/2000/svg">
<path d="M65.498 52.874L55.1509 42.5257C53.0899 40.473 49.6769 40.5354 47.5442 42.6689L42.3313 47.8807C42.0019 47.6992 41.661 47.5096 41.3026 47.3084C38.0107 45.4844 33.5052 42.9844 28.7641 38.2398C24.0089 33.4852 21.5066 28.9727 19.677 25.6787C19.4839 25.3297 19.2989 24.9933 19.1163 24.6738L22.6149 21.1803L24.335 19.4581C26.471 17.3215 26.5299 13.9095 24.4737 11.8509L14.1266 1.50147C12.0705 -0.554282 8.65599 -0.491916 6.51997 1.64468L3.6038 4.5776L3.68349 4.65671C2.70566 5.90441 1.88855 7.34343 1.28049 8.89526C0.719966 10.3724 0.370988 11.782 0.211417 13.1944C-1.15485 24.5211 4.02111 34.8728 18.068 48.9199C37.4851 68.3356 53.1327 66.8689 53.8077 66.7973C55.2779 66.6215 56.6869 66.2702 58.1188 65.7142C59.6572 65.1132 61.0952 64.2973 62.3422 63.3215L62.4059 63.3781L65.3602 60.4853C67.4918 58.349 67.5532 54.9359 65.498 52.874Z" fill="#FFC59E"/>
</svg>
