<svg width="102" height="112" viewBox="0 0 112 112" fill="none" xmlns="http://www.w3.org/2000/svg">
<mask id="path-1-outside-1_352_1645" maskUnits="userSpaceOnUse" x="0" y="0" width="112" height="112" fill="black">
<rect fill="white" width="112" height="112"/>
<path d="M96.26 56.7526L102.499 50.5134C113.833 39.1797 113.834 20.8353 102.499 9.50063C91.1661 -1.83279 72.8215 -1.83429 61.4868 9.50063C59.0676 11.9193 11.6949 59.2925 9.50071 61.4867C-1.83292 72.8203 -1.83421 91.1647 9.50071 102.499C20.8339 113.833 39.1785 113.834 50.5132 102.499L56.7527 96.2602C61.7405 105.05 71.1852 110.993 81.9929 110.993C97.9837 110.993 110.993 97.9839 110.993 81.9931C110.993 71.1852 105.05 61.7404 96.26 56.7526ZM52.9925 81.9928C52.9925 84.7074 53.3685 87.3358 54.0691 89.8297L45.9564 97.9424C37.1416 106.757 22.8736 106.758 14.0577 97.9424C5.24294 89.1278 5.24165 74.8596 14.0577 66.0437L37.5756 42.5259L59.1699 64.12C55.3017 69.0488 52.9925 75.2562 52.9925 81.9928ZM78.7705 104.318C67.8541 102.749 59.437 93.3364 59.437 81.9928C59.437 70.6493 67.8541 61.2364 78.7705 59.668V104.318V104.318ZM63.684 59.5204L42.1324 37.9689L66.0436 14.0577C74.8584 5.24307 89.1264 5.24179 97.9423 14.0577C106.757 22.8723 106.758 37.1404 97.9423 45.9563L89.8296 54.069C87.3357 53.3682 84.7075 52.9924 81.9929 52.9924C75.0556 52.9924 68.6804 55.4423 63.684 59.5204ZM85.2152 104.318V59.6683C96.1316 61.2366 104.549 70.6495 104.549 81.9931C104.549 93.3364 96.1316 102.749 85.2152 104.318Z"/>
</mask>
<path d="M96.26 56.7526L102.499 50.5134C113.833 39.1797 113.834 20.8353 102.499 9.50063C91.1661 -1.83279 72.8215 -1.83429 61.4868 9.50063C59.0676 11.9193 11.6949 59.2925 9.50071 61.4867C-1.83292 72.8203 -1.83421 91.1647 9.50071 102.499C20.8339 113.833 39.1785 113.834 50.5132 102.499L56.7527 96.2602C61.7405 105.05 71.1852 110.993 81.9929 110.993C97.9837 110.993 110.993 97.9839 110.993 81.9931C110.993 71.1852 105.05 61.7404 96.26 56.7526ZM52.9925 81.9928C52.9925 84.7074 53.3685 87.3358 54.0691 89.8297L45.9564 97.9424C37.1416 106.757 22.8736 106.758 14.0577 97.9424C5.24294 89.1278 5.24165 74.8596 14.0577 66.0437L37.5756 42.5259L59.1699 64.12C55.3017 69.0488 52.9925 75.2562 52.9925 81.9928ZM78.7705 104.318C67.8541 102.749 59.437 93.3364 59.437 81.9928C59.437 70.6493 67.8541 61.2364 78.7705 59.668V104.318V104.318ZM63.684 59.5204L42.1324 37.9689L66.0436 14.0577C74.8584 5.24307 89.1264 5.24179 97.9423 14.0577C106.757 22.8723 106.758 37.1404 97.9423 45.9563L89.8296 54.069C87.3357 53.3682 84.7075 52.9924 81.9929 52.9924C75.0556 52.9924 68.6804 55.4423 63.684 59.5204ZM85.2152 104.318V59.6683C96.1316 61.2366 104.549 70.6495 104.549 81.9931C104.549 93.3364 96.1316 102.749 85.2152 104.318Z" fill="#FFC59E"/>
<path d="M96.26 56.7526L102.499 50.5134C113.833 39.1797 113.834 20.8353 102.499 9.50063C91.1661 -1.83279 72.8215 -1.83429 61.4868 9.50063C59.0676 11.9193 11.6949 59.2925 9.50071 61.4867C-1.83292 72.8203 -1.83421 91.1647 9.50071 102.499C20.8339 113.833 39.1785 113.834 50.5132 102.499L56.7527 96.2602C61.7405 105.05 71.1852 110.993 81.9929 110.993C97.9837 110.993 110.993 97.9839 110.993 81.9931C110.993 71.1852 105.05 61.7404 96.26 56.7526ZM52.9925 81.9928C52.9925 84.7074 53.3685 87.3358 54.0691 89.8297L45.9564 97.9424C37.1416 106.757 22.8736 106.758 14.0577 97.9424C5.24294 89.1278 5.24165 74.8596 14.0577 66.0437L37.5756 42.5259L59.1699 64.12C55.3017 69.0488 52.9925 75.2562 52.9925 81.9928ZM78.7705 104.318C67.8541 102.749 59.437 93.3364 59.437 81.9928C59.437 70.6493 67.8541 61.2364 78.7705 59.668V104.318V104.318ZM63.684 59.5204L42.1324 37.9689L66.0436 14.0577C74.8584 5.24307 89.1264 5.24179 97.9423 14.0577C106.757 22.8723 106.758 37.1404 97.9423 45.9563L89.8296 54.069C87.3357 53.3682 84.7075 52.9924 81.9929 52.9924C75.0556 52.9924 68.6804 55.4423 63.684 59.5204ZM85.2152 104.318V59.6683C96.1316 61.2366 104.549 70.6495 104.549 81.9931C104.549 93.3364 96.1316 102.749 85.2152 104.318Z" stroke="#FFC59E" stroke-width="2" mask="url(#path-1-outside-1_352_1645)"/>
</svg>
