<svg width="100" height="103" viewBox="0 0 89 91" fill="none" xmlns="http://www.w3.org/2000/svg">
<rect width="89" height="91" fill="#333333"/>
<rect width="1920" height="8452" transform="translate(-481 -1579)" fill="#FFFEFE"/>
<g filter="url(#filter0_d_0_1)">
<rect x="-197" y="-104" width="320" height="220" rx="20" fill="white"/>
</g>
<mask id="path-2-outside-1_0_1" maskUnits="userSpaceOnUse" x="0.149414" y="0" width="89" height="91" fill="black">
<rect fill="white" x="0.149414" width="89" height="91"/>
<path d="M54.4494 36.7C61.5994 36.7 65.9994 26.25 65.9994 19.65C65.9994 14.15 63.2494 7.55 57.7494 7.55C50.5994 7.55 46.1994 18 46.1994 24.6C46.1994 30.1 48.9494 36.7 54.4494 36.7ZM33.5494 36.7C39.0494 36.7 41.7994 30.1 41.7994 24.6C41.7994 17.45 37.3994 7 30.2494 7C24.7494 7 21.9994 13.6 21.9994 19.1C21.4494 26.25 25.8494 36.7 33.5494 36.7ZM74.2494 31.2C67.0994 31.2 62.1494 41.1 62.1494 48.25C62.1494 53.2 64.3494 58.15 69.2994 58.15C76.4494 58.15 81.3994 48.25 81.3994 41.1C81.3994 36.15 78.6494 31.2 74.2494 31.2ZM26.3994 48.25C26.3994 41.1 20.8994 31.2 14.2994 31.2C9.34941 31.2 7.14941 36.15 7.14941 41.1C7.14941 48.25 12.6494 58.15 19.2494 58.15C24.1994 58.15 26.3994 53.2 26.3994 48.25ZM43.9994 47.15C32.9994 47.15 18.1494 64.75 18.1494 76.85C18.1494 82.35 21.9994 84 26.3994 84C32.9994 84 37.9494 79.6 43.9994 79.6C49.4994 79.6 54.4494 84 60.4994 84C64.8994 84 69.8494 82.9 69.8494 76.85C69.8494 64.75 54.9994 47.15 43.9994 47.15Z"/>
</mask>
<path d="M54.4494 36.7C61.5994 36.7 65.9994 26.25 65.9994 19.65C65.9994 14.15 63.2494 7.55 57.7494 7.55C50.5994 7.55 46.1994 18 46.1994 24.6C46.1994 30.1 48.9494 36.7 54.4494 36.7ZM33.5494 36.7C39.0494 36.7 41.7994 30.1 41.7994 24.6C41.7994 17.45 37.3994 7 30.2494 7C24.7494 7 21.9994 13.6 21.9994 19.1C21.4494 26.25 25.8494 36.7 33.5494 36.7ZM74.2494 31.2C67.0994 31.2 62.1494 41.1 62.1494 48.25C62.1494 53.2 64.3494 58.15 69.2994 58.15C76.4494 58.15 81.3994 48.25 81.3994 41.1C81.3994 36.15 78.6494 31.2 74.2494 31.2ZM26.3994 48.25C26.3994 41.1 20.8994 31.2 14.2994 31.2C9.34941 31.2 7.14941 36.15 7.14941 41.1C7.14941 48.25 12.6494 58.15 19.2494 58.15C24.1994 58.15 26.3994 53.2 26.3994 48.25ZM43.9994 47.15C32.9994 47.15 18.1494 64.75 18.1494 76.85C18.1494 82.35 21.9994 84 26.3994 84C32.9994 84 37.9494 79.6 43.9994 79.6C49.4994 79.6 54.4494 84 60.4994 84C64.8994 84 69.8494 82.9 69.8494 76.85C69.8494 64.75 54.9994 47.15 43.9994 47.15Z" stroke="#FFC59E" stroke-width="14" stroke-linecap="round" stroke-linejoin="round" mask="url(#path-2-outside-1_0_1)"/>
<defs>
<filter id="filter0_d_0_1" x="-205" y="-112" width="340" height="240" filterUnits="userSpaceOnUse" color-interpolation-filters="sRGB">
<feFlood flood-opacity="0" result="BackgroundImageFix"/>
<feColorMatrix in="SourceAlpha" type="matrix" values="0 0 0 0 0 0 0 0 0 0 0 0 0 0 0 0 0 0 127 0" result="hardAlpha"/>
<feOffset dx="2" dy="2"/>
<feGaussianBlur stdDeviation="5"/>
<feColorMatrix type="matrix" values="0 0 0 0 0 0 0 0 0 0 0 0 0 0 0 0 0 0 0.1 0"/>
<feBlend mode="normal" in2="BackgroundImageFix" result="effect1_dropShadow_0_1"/>
<feBlend mode="normal" in="SourceGraphic" in2="effect1_dropShadow_0_1" result="shape"/>
</filter>
</defs>
</svg>
